<svg xmlns="http://www.w3.org/2000/svg" width="88.799" height="384.34" viewBox="0 0 88.799 384.34">
  <path id="chaveD" d="M61.6,384.278C79.668,383.4,93.941,377.59,104,366.9c10.9-11.626,16.433-28.315,16.433-49.691V239.517c0-10.688,3.16-19.126,9.375-25.189,5.161-5,12.061-7.876,20.541-8.688V178.575c-8.48-.75-15.379-3.688-20.541-8.688-6.215-6-9.375-14.5-9.375-25.189V67.255c0-21.5-5.53-38.253-16.485-49.879C93.888,6.688,79.615.813,61.55,0V21.064c10.9.813,19.751,4.438,26.281,10.813,7.532,7.438,11.376,17.876,11.376,31v82.068c0,17.626,4.687,30.877,14.326,40.44,1.053,1.063,2.159,2,3.265,2.938l4.9,4-4.845,4.063a40.156,40.156,0,0,0-3.265,3c-9.533,9.751-14.378,24-14.378,42.316v79.568c0,13.314-3.845,23.814-11.376,31.19-6.531,6.375-15.326,10-26.281,10.813V384.34Z" transform="translate(-61.55)" fill="#5c6ffc"/>
</svg>
