<svg xmlns="http://www.w3.org/2000/svg" width="100" height="393.525" viewBox="0 0 100 393.525">
  <path id="chaveE" d="M61.609,393.461c20.344-.9,36.418-6.848,47.746-17.792,12.278-11.9,18.505-28.991,18.505-50.879v-79.55c0-10.944,3.559-19.583,10.558-25.791,5.813-5.12,13.582-8.064,23.132-8.9V182.843c-9.549-.768-17.319-3.776-23.132-8.9-7-6.144-10.558-14.848-10.558-25.791V68.862c0-22.015-6.228-39.167-18.565-51.071C97.968,6.848,81.894.832,61.55,0V21.567c12.278.832,22.242,4.544,29.6,11.072,8.482,7.616,12.811,18.3,12.811,31.743v84.03c0,18.048,5.279,31.615,16.133,41.407,1.186,1.088,2.432,2.048,3.677,3.008l5.516,4.1-5.457,4.16a43.938,43.938,0,0,0-3.677,3.072c-10.736,9.984-16.192,24.575-16.192,43.327v81.47c0,13.632-4.33,24.383-12.811,31.935-7.355,6.528-17.26,10.24-29.6,11.072v21.567Z" transform="translate(161.55 393.525) rotate(180)" fill="#5c6ffc"/>
</svg>
