<?xml version="1.0" encoding="UTF-8"?>
<svg id="Layer_2" data-name="Layer 2" xmlns="http://www.w3.org/2000/svg" viewBox="0 0 447.25 283.46">
  <defs>
    <style>
      .cls-1 {
        fill: #fff;
      }
    </style>
  </defs>
  <g id="Layer_1-2" data-name="Layer 1">
    <path class="cls-1" d="M447.25,188.94c-.9,2.78-3.2,2.34-5.33,2.34-44.26,0-88.53,0-132.79,0h-5.55c-2.12,14.22,4.86,34.97,23.05,42.93,17.14,7.51,34.62,6.99,51.75,.11,10.66-4.28,16.7-12.72,17.75-24.61h49.29c-1.02,7.04-1.39,13.99-3.09,20.58-6.17,23.82-22.68,37.85-45,45.96-19.96,7.25-40.65,8.13-61.55,6.58-11.94-.88-23.61-3.28-34.73-7.82-29.18-11.91-46.65-33.97-53.96-64.09-9.11-37.56-2.72-72.58,20.21-103.85,15.46-21.09,37.47-31.67,63.01-35.11,17.74-2.39,35.46-2.05,52.79,2.87,32.73,9.3,51.2,32.13,59.59,64.07,1.8,6.85,2.48,13.99,3.72,20.99,.17,.97,.56,1.89,.84,2.84v26.22Zm-144.76-35.18h90.61c0-1.13,.08-1.99-.02-2.84-.24-2.02-.45-4.05-.89-6.03-3.5-15.92-11.76-27.81-28.36-31.96-29.69-7.42-56.26,10.25-61.34,40.83Zm-119.31-27.12c25.3,1.92,38.76,16.25,45.33,38.26,1.61,5.4,2.72,11.05,3.24,16.65,1.52,16.5,.89,32.86-5.49,48.49-9.7,23.78-28.4,37.08-52.37,43.33-9.89,2.58-20.35,4.04-30.56,4.13-46.3,.43-92.61,.19-138.91,.19H0V.48C.98,.35,1.93,.1,2.88,.1c49.22,.02,98.44-.38,147.64,.3,23.15,.32,44,8.15,58.22,27.58,15.31,20.93,17.88,44.54,10.1,68.89-4.92,15.41-16.73,24.38-32.1,28.76-.8,.23-1.59,.45-3.57,.99ZM63.76,228.28h4.89c22.27,0,44.53,.04,66.8-.04,4.06-.01,8.16-.22,12.17-.84,11.8-1.84,20.6-8.08,23.35-19.89,1.81-7.77,2.34-16.17,1.67-24.13-1.56-18.6-13.99-29.3-32.55-29.3-23.87,0-47.73,0-71.6,0h-4.73v74.2Zm-.03-117.53c.62,.21,.88,.38,1.14,.38,25.89,.02,51.79,.19,77.68-.05,9.79-.09,16.8-5.12,18.65-14.64,1.72-8.85,2.45-18.22,1.56-27.16-1.11-11.12-7.97-20.36-23.9-19.96-23.26,.58-46.55,.15-69.82,.15h-5.31v61.27ZM404.52,50.48V16.54h-114.22V50.48h114.22Z"/>
  </g>
</svg>