<?xml version="1.0" encoding="UTF-8"?>
<svg id="Layer_2" data-name="Layer 2" xmlns="http://www.w3.org/2000/svg" viewBox="0 0 296.64 283.46">
  <defs>
    <style>
      .cls-1 {
        fill: #fff;
      }
    </style>
  </defs>
  <g id="Layer_1-2" data-name="Layer 1">
    <path class="cls-1" d="M296.64,173.78v109.68h-63.59v-102.33c0-25.7-9.19-43.24-32.2-43.24-17.58,0-28.02,11.81-32.62,23.25-1.67,4.09-2.11,9.77-2.11,15.5v106.82h-63.6s.85-173.32,0-191.26h63.6v27.1c-.13,.21-.3,.42-.42,.63h.42v-.63c8.45-13,23.53-31.59,57.31-31.59,41.85,0,73.21,27.33,73.21,86.07h0ZM35.98,0C14.23,0,0,14.28,0,33.04s13.82,33.06,35.15,33.06h.42c22.18,0,35.97-14.69,35.97-33.06C71.12,14.28,57.75,0,35.98,0h0ZM3.78,283.46h63.57V92.2H3.78v191.26Z"/>
  </g>
</svg>