<?xml version="1.0" encoding="UTF-8"?>
<svg id="Layer_2" data-name="Layer 2" xmlns="http://www.w3.org/2000/svg" viewBox="0 0 79.27 62.36">
  <defs>
    <style>
      .cls-1 {
        fill: #6662fc;
      }
    </style>
  </defs>
  <g id="Layer_1-2" data-name="Layer 1">
    <g>
      <path class="cls-1" d="m7.69,30.43c1.93-1.62,2.87-3.84,2.87-6.8v-13.13c0-1.97.68-3.53,2.01-4.64,1.17-.96,2.76-1.51,4.74-1.63l.4-.02V0l-.44.02c-3.53.14-6.33,1.11-8.32,2.89-2.17,1.94-3.27,4.73-3.27,8.29v12.4c0,1.57-.55,2.82-1.62,3.7-.91.74-2.14,1.18-3.66,1.29l-.39.03v5.12l.39.03c1.52.12,2.75.55,3.66,1.29,1.08.88,1.62,2.12,1.62,3.7v12.43c0,3.54,1.1,6.32,3.27,8.26,1.99,1.78,4.79,2.75,8.32,2.89l.44.02v-4.21l-.4-.02c-1.98-.12-3.58-.67-4.74-1.63-1.33-1.1-2.01-2.67-2.01-4.67v-12.73c0-3.06-.97-5.44-2.88-7.09-.21-.18-.43-.34-.66-.5l-.42-.29.42-.29c.23-.16.45-.31.66-.49Z"/>
      <path class="cls-1" d="m78.87,28.59c-1.52-.12-2.75-.55-3.66-1.29-1.08-.88-1.62-2.12-1.62-3.7v-12.4c0-3.56-1.1-6.35-3.27-8.29-1.99-1.78-4.79-2.75-8.32-2.89l-.44-.02v4.21l.4.02c1.98.12,3.58.67,4.74,1.63,1.33,1.1,2.01,2.66,2.01,4.64v13.13c0,2.96.94,5.18,2.87,6.8.21.18.43.34.66.49l.42.29-.42.29c-.23.16-.45.32-.65.5-1.91,1.65-2.88,4.03-2.88,7.09v12.73c0,1.99-.68,3.56-2.01,4.67-1.16.96-2.76,1.51-4.74,1.63l-.4.02v4.21l.44-.02c3.53-.14,6.33-1.11,8.32-2.89,2.17-1.94,3.27-4.72,3.27-8.26v-12.43c0-1.57.55-2.82,1.62-3.7.91-.74,2.14-1.18,3.66-1.29l.39-.03v-5.12l-.39-.03Z"/>
      <path class="cls-1" d="m29.07,51.58c-5.55,0-10.06-4.51-10.06-10.06v-20.68c0-5.55,4.51-10.06,10.06-10.06h21.13c5.55,0,10.06,4.51,10.06,10.06v20.68c0,5.55-4.51,10.06-10.06,10.06h-21.13Zm0-36.33c-3.08,0-5.59,2.51-5.59,5.59v20.68c0,3.08,2.51,5.59,5.59,5.59h21.13c3.08,0,5.59-2.51,5.59-5.59v-20.68c0-3.08-2.51-5.59-5.59-5.59h-21.13Z"/>
      <path class="cls-1" d="m50.2,51.16h-21.13c-5.32,0-9.64-4.31-9.64-9.64v-20.68c0-5.32,4.31-9.64,9.64-9.64h21.13c5.32,0,9.64,4.31,9.64,9.64v20.68c0,5.32-4.31,9.64-9.64,9.64ZM29.07,14.83c-3.32,0-6.01,2.69-6.01,6.01v20.68c0,3.32,2.69,6.01,6.01,6.01h21.13c3.32,0,6.01-2.69,6.01-6.01v-20.68c0-3.32-2.69-6.01-6.01-6.01h-21.13Z"/>
      <path class="cls-1" d="m39.63,36.53c-5.52,0-6.47-4.12-6.57-4.6l-.08-.41-2.17.39-2.23.38.07.42c.49,2.87,3.41,8.3,10.97,8.3h.42v-4.47h-.42Z"/>
      <rect class="cls-1" x="33.62" y="21.36" width="4.56" height="7.6"/>
      <rect class="cls-1" x="41.2" y="21.36" width="4.56" height="7.6"/>
    </g>
  </g>
</svg>