<?xml version="1.0" encoding="UTF-8"?>
<svg id="Layer_2" data-name="Layer 2" xmlns="http://www.w3.org/2000/svg" viewBox="0 0 279.35 279.85">
  <defs>
    <style>
      .cls-1 {
        fill: #fff;
      }
    </style>
  </defs>
  <g id="Layer_1-2" data-name="Layer 1">
    <path class="cls-1" d="M278.69,203.8c-1.32,42.57-32.54,73.78-75.12,74.88-36.5,.94-73.03,1.47-109.54,.99-14.15-.19-28.8-1.89-42.28-5.99-28.44-8.67-44.15-29.74-49.19-58.54C.65,204.19-.01,192.89,0,181.76c.04-35.46,.23-70.94,1.2-106.38C2.33,33.68,33.96,2.18,75.64,1.16,112.14,.26,148.67-.22,185.17,.1c13.36,.12,27.13,1.45,39.94,5.02,30.15,8.4,48.06,29.58,52,60.2,3.16,24.6,2.24,117.18,1.58,138.48ZM24.31,139.45c.71,22.43,.89,45.03,2.3,67.56,1.46,23.46,17.05,41.07,40.06,44.95,12.6,2.13,25.59,2.64,38.4,2.63,33.77-.04,67.56-.26,101.31-1.44,14.79-.51,27.61-6.96,36.86-19.31,8.37-11.18,10.94-24.23,11.09-37.56,.42-37.6,.4-75.21,.01-112.81-.13-12.9-2.53-25.62-10.32-36.55-11.39-15.97-28.23-21.22-46.45-21.34-41.16-.29-82.35-.18-123.49,1.07-26.75,.81-45.84,20.26-47.5,46.79-1.37,21.9-1.55,43.87-2.27,66Zm43.87,.34c-.12-39.76,31.38-71.48,71.17-71.66,40.48-.18,72.22,31.35,72.31,71.85,.09,39.67-31.52,71.48-71.22,71.69-40.51,.21-72.14-31.25-72.26-71.88Zm118.42-2.19c-1.15-26.59-23.99-46.36-49.18-44.36-26.86,2.13-46.6,24.26-44.37,48.64,2.48,27.13,24.28,47.1,48.98,44.89,26.96-2.41,46.97-24.47,44.57-49.16Zm45.1-72.36c.16-8.94-7.89-17.07-16.88-17.05-9.21,.02-16.82,7.86-16.64,17.13,.18,9.28,7.39,16.25,16.73,16.2,9.12-.05,16.63-7.33,16.79-16.29Z"/>
  </g>
</svg>